<svg width="312" height="37" viewBox="0 0 312 37" fill="none" xmlns="http://www.w3.org/2000/svg">
<path d="M52 9C52 4.58172 55.5817 1 60 1H80C84.4183 1 88 4.58172 88 9V29C88 33.4183 84.4183 37 80 37H60C55.5817 37 52 33.4183 52 29V9Z" fill="#EDF5FF"/>
<path d="M156 9C156 4.58172 159.582 1 164 1H184C188.418 1 192 4.58172 192 9V29C192 33.4183 188.418 37 184 37H164C159.582 37 156 33.4183 156 29V9Z" fill="#EDF5FF"/>
<path d="M0 9C0 4.58172 3.58172 1 8 1H28C32.4183 1 36 4.58172 36 9V29C36 33.4183 32.4183 37 28 37H8C3.58172 37 0 33.4183 0 29V9Z" fill="#EDF5FF"/>
<path d="M208 9C208 4.58172 211.582 1 216 1H236C240.418 1 244 4.58172 244 9V29C244 33.4183 240.418 37 236 37H216C211.582 37 208 33.4183 208 29V9Z" fill="#EDF5FF"/>
<path d="M104 9C104 4.58172 107.582 1 112 1H132C136.418 1 140 4.58172 140 9V29C140 33.4183 136.418 37 132 37H112C107.582 37 104 33.4183 104 29V9Z" fill="#EDF5FF"/>
</svg>
