<svg width="178" height="42" viewBox="0 0 178 42" fill="none" xmlns="http://www.w3.org/2000/svg">
<path d="M6.68982 9.59289L0.375359 10.9386L6.70129 12.7904C7.09477 12.9083 7.44953 13.1294 7.72865 13.4308C8.00777 13.7322 8.20108 14.1028 8.28853 14.5041L9.86426 22.0722L11.5665 14.6422C11.6663 14.2274 11.8794 13.8486 12.182 13.548C12.4846 13.2474 12.8649 13.0368 13.2803 12.9399L19.6062 11.5022L13.0962 9.67341C12.7076 9.54301 12.3609 9.31113 12.0919 9.00173C11.823 8.69234 11.6416 8.31668 11.5665 7.91365L10.1173 0.621582L8.47257 7.86764C8.37136 8.29552 8.14966 8.68544 7.8337 8.9912C7.51775 9.29697 7.12078 9.50577 6.68982 9.59289Z" fill="#0075FF"/>
<path d="M15.6457 30.1071L9.9904 31.3123L15.656 32.9708C16.0084 33.0764 16.3261 33.2744 16.5761 33.5443C16.8261 33.8143 16.9992 34.1462 17.0775 34.5056L18.4888 41.2837L20.0133 34.6292C20.1027 34.2578 20.2935 33.9185 20.5646 33.6493C20.8356 33.3801 21.1761 33.1915 21.5482 33.1047L27.2137 31.817L21.3833 30.1792C21.0353 30.0624 20.7247 29.8547 20.4839 29.5776C20.243 29.3005 20.0805 28.9641 20.0133 28.6031L18.7154 22.0723L17.2423 28.5619C17.1517 28.9451 16.9531 29.2943 16.6702 29.5682C16.3872 29.842 16.0317 30.029 15.6457 30.1071Z" fill="#0075FF"/>
<path d="M28.4683 14.3663L18.794 16.4281L28.4859 19.2651C29.0887 19.4458 29.6322 19.7846 30.0599 20.2463C30.4875 20.708 30.7837 21.2758 30.9177 21.8907L33.3318 33.4857L35.9398 22.1022C36.0926 21.4668 36.4191 20.8864 36.8828 20.4258C37.3464 19.9653 37.929 19.6427 38.5654 19.4942L48.2572 17.2915L38.2834 14.4897C37.688 14.2899 37.1568 13.9346 36.7447 13.4606C36.3327 12.9866 36.0548 12.4111 35.9398 11.7936L33.7195 0.621582L31.1996 11.7231C31.0446 12.3786 30.7049 12.976 30.2208 13.4445C29.7367 13.913 29.1286 14.2329 28.4683 14.3663Z" fill="#0075FF"/>
<path d="M56.5205 19.7955C56.5205 18.2552 56.8978 16.8327 57.6522 15.5282C58.4223 14.2236 59.4597 13.1941 60.7643 12.4397C62.0688 11.6695 63.4912 11.2844 65.0316 11.2844C66.6033 11.2844 68.0572 11.6931 69.3932 12.5104C70.7291 13.312 71.7586 14.3808 72.4816 15.7168L69.7704 17.1549C69.2989 16.3219 68.6387 15.6539 67.79 15.1509C66.9412 14.6323 66.0218 14.3729 65.0316 14.3729C64.0571 14.3729 63.1455 14.6166 62.2967 15.1038C61.4637 15.591 60.8035 16.2512 60.3163 17.0842C59.8291 17.9172 59.5854 18.821 59.5854 19.7955C59.5854 20.77 59.8291 21.6737 60.3163 22.5067C60.8035 23.3398 61.4637 23.9999 62.2967 24.4871C63.1455 24.9744 64.0571 25.218 65.0316 25.218C66.0532 25.218 66.9805 24.9587 67.8136 24.44C68.6623 23.9213 69.3224 23.2297 69.794 22.3653L72.5052 23.8506C71.7822 25.2023 70.7527 26.2868 69.4167 27.1041C68.0807 27.9057 66.619 28.3065 65.0316 28.3065C63.4912 28.3065 62.0688 27.9293 60.7643 27.1748C59.4597 26.4047 58.4223 25.3673 57.6522 24.0628C56.8978 22.7582 56.5205 21.3358 56.5205 19.7955ZM77.6701 24.6757C77.6701 24.9272 77.7329 25.108 77.8587 25.218C77.9844 25.328 78.1809 25.383 78.4481 25.383C78.6524 25.383 78.896 25.3595 79.179 25.3123V28C78.5974 28.0943 78.0552 28.1415 77.5522 28.1415C76.6406 28.1415 75.9412 27.9057 75.4539 27.4342C74.9824 26.9469 74.7466 26.0903 74.7466 24.8644V11.4966H77.6701V24.6757ZM86.3653 15.9054C87.497 15.9054 88.5107 16.1883 89.4066 16.7541C90.3182 17.3042 91.0255 18.0508 91.5285 18.9939C92.0314 19.9369 92.2829 20.9821 92.2829 22.1295C92.2829 22.5067 92.2515 22.8525 92.1886 23.1669H83.0882C83.324 23.9999 83.7405 24.6522 84.3377 25.1237C84.935 25.5795 85.6973 25.8074 86.6246 25.8074C87.1905 25.8074 87.7327 25.6817 88.2514 25.4302C88.7858 25.1787 89.1866 24.8565 89.4538 24.4636L91.6935 25.7838C91.1434 26.6011 90.4283 27.2298 89.5481 27.6699C88.6836 28.0943 87.6856 28.3065 86.5539 28.3065C85.2965 28.3065 84.1806 28.0393 83.2061 27.5049C82.2316 26.9705 81.4771 26.2318 80.9428 25.2887C80.4241 24.3457 80.1647 23.2848 80.1647 22.1059C80.1647 20.9428 80.4241 19.8898 80.9428 18.9467C81.4771 18.0037 82.2159 17.265 83.1589 16.7306C84.102 16.1804 85.1708 15.9054 86.3653 15.9054ZM89.5481 20.88C89.4223 20.1255 89.0687 19.5361 88.4872 19.1118C87.9213 18.6717 87.2062 18.4516 86.3417 18.4516C85.7445 18.4516 85.1943 18.5616 84.6914 18.7817C84.2041 19.0017 83.8112 19.3004 83.5126 19.6776C83.2139 20.0548 83.0568 20.4556 83.041 20.88H89.5481ZM103.374 16.2119H106.298V28H103.374V26.8448C102.824 27.3163 102.219 27.6857 101.559 27.9528C100.915 28.2043 100.231 28.3301 99.5079 28.3301C98.3134 28.3301 97.2682 28.0629 96.3723 27.5285C95.4764 26.9941 94.7848 26.2554 94.2976 25.3123C93.8261 24.3693 93.5903 23.3083 93.5903 22.1295C93.5903 20.9507 93.8261 19.8898 94.2976 18.9467C94.7848 18.0037 95.4764 17.265 96.3723 16.7306C97.2682 16.1804 98.3134 15.9054 99.5079 15.9054C100.231 15.9054 100.915 16.039 101.559 16.3062C102.219 16.5577 102.824 16.9192 103.374 17.3907V16.2119ZM99.8852 25.5245C100.53 25.5245 101.111 25.383 101.63 25.1001C102.164 24.8015 102.581 24.3928 102.879 23.8742C103.194 23.3555 103.351 22.7661 103.351 22.1059C103.351 21.1157 103.013 20.3063 102.337 19.6776C101.677 19.0489 100.86 18.7345 99.8852 18.7345C98.895 18.7345 98.0777 19.0567 97.4332 19.7012C96.8045 20.3299 96.4902 21.1393 96.4902 22.1295C96.4902 23.1197 96.8045 23.937 97.4332 24.5814C98.0777 25.2101 98.895 25.5245 99.8852 25.5245ZM115.294 15.9054C115.985 15.9054 116.685 16.0547 117.392 16.3533C118.115 16.6363 118.728 17.1549 119.231 17.9094C119.749 18.6638 120.009 19.6776 120.009 20.9507V28H117.085V20.9507C117.085 20.0705 116.834 19.4418 116.331 19.0646C115.844 18.6717 115.27 18.4752 114.61 18.4752C113.95 18.4752 113.384 18.711 112.912 19.1825C112.457 19.6383 112.229 20.377 112.229 21.3987V28H109.305V16.2119H112.229V17.2021C112.653 16.8091 113.125 16.4948 113.643 16.259C114.162 16.0233 114.712 15.9054 115.294 15.9054ZM123.845 14.2551C123.295 14.2551 122.863 14.1057 122.549 13.8071C122.234 13.5085 122.077 13.0998 122.077 12.5811C122.077 12.0467 122.234 11.6302 122.549 11.3316C122.863 11.033 123.295 10.8836 123.845 10.8836C124.396 10.8836 124.828 11.033 125.142 11.3316C125.456 11.6302 125.614 12.0467 125.614 12.5811C125.614 13.0841 125.449 13.4928 125.119 13.8071C124.804 14.1057 124.38 14.2551 123.845 14.2551ZM122.36 28V16.2119H125.284V28H122.36ZM134.196 15.9054C134.888 15.9054 135.587 16.0547 136.294 16.3533C137.017 16.6363 137.63 17.1549 138.133 17.9094C138.652 18.6638 138.911 19.6776 138.911 20.9507V28H135.988V20.9507C135.988 20.0705 135.736 19.4418 135.233 19.0646C134.746 18.6717 134.172 18.4752 133.512 18.4752C132.852 18.4752 132.286 18.711 131.815 19.1825C131.359 19.6383 131.131 20.377 131.131 21.3987V28H128.208V16.2119H131.131V17.2021C131.555 16.8091 132.027 16.4948 132.546 16.259C133.064 16.0233 133.614 15.9054 134.196 15.9054ZM150.504 16.2119H153.428V27.4106C153.428 28.5265 153.145 29.5089 152.579 30.3576C152.029 31.2064 151.259 31.8586 150.269 32.3145C149.278 32.786 148.17 33.0217 146.944 33.0217C145.577 33.0217 144.335 32.7545 143.219 32.2201C142.103 31.7015 141.318 31.0178 140.862 30.169L143.361 28.7309C143.597 29.1867 144.037 29.5639 144.681 29.8625C145.326 30.1769 146.104 30.334 147.015 30.334C148.021 30.334 148.854 30.059 149.514 29.5089C150.174 28.9745 150.504 28.2751 150.504 27.4106V26.8683C149.97 27.3399 149.373 27.7014 148.713 27.9528C148.053 28.2043 147.369 28.3301 146.662 28.3301C145.467 28.3301 144.422 28.0629 143.526 27.5285C142.63 26.9941 141.938 26.2554 141.451 25.3123C140.98 24.3693 140.744 23.3083 140.744 22.1295C140.744 20.9507 140.98 19.8898 141.451 18.9467C141.938 18.0037 142.63 17.265 143.526 16.7306C144.422 16.1804 145.467 15.9054 146.662 15.9054C147.369 15.9054 148.045 16.039 148.689 16.3062C149.349 16.5577 149.954 16.9113 150.504 17.3671V16.2119ZM147.039 25.5245C147.683 25.5245 148.265 25.383 148.783 25.1001C149.318 24.8015 149.734 24.3928 150.033 23.8742C150.347 23.3555 150.504 22.7661 150.504 22.1059C150.504 21.1157 150.167 20.3063 149.491 19.6776C148.831 19.0489 148.013 18.7345 147.039 18.7345C146.049 18.7345 145.231 19.0567 144.587 19.7012C143.958 20.3299 143.644 21.1393 143.644 22.1295C143.644 23.1197 143.958 23.937 144.587 24.5814C145.231 25.2101 146.049 25.5245 147.039 25.5245ZM171.072 19.7247L176.423 28H172.746L168.926 22.0824L165.107 28H161.429L166.781 19.7247L161.452 11.4966H165.13L168.926 17.3671L172.722 11.4966H176.4L171.072 19.7247Z" fill="#211F54"/>
</svg>
